<svg xmlns="http://www.w3.org/2000/svg" aria-hidden="true" style="position:absolute;width:0;height:0;overflow:hidden">
  <defs>
    <symbol id="icon-close" viewBox="0 0 32 32">
      <path d="m8.533 25.333-1.867-1.867 7.467-7.467-7.467-7.467 1.867-1.867L16 14.132l7.467-7.467 1.867 1.867-7.467 7.467 7.467 7.467-1.867 1.867L16 17.866l-7.467 7.467z"/>
    </symbol>
    <symbol id="icon-left-arrow" viewBox="0 0 32 32">
      <path d="M26.56 12.107v8H15.893v6.453L5.44 16.107 15.893 5.654v6.453H26.56z"/>
    </symbol>
    <symbol id="icon-menu" viewBox="0 0 32 32">
      <path d="M4 24v-2h24v2H4zm0-7v-2h24v2H4zm0-7V8h24v2H4z"/>
    </symbol>
    <symbol id="icon-right-arrow" viewBox="0 0 32 32">
      <path d="M5.44 20.106v-8h10.667V5.653L26.56 16.106 16.107 26.559v-6.453H5.44z"/>
    </symbol>
    <symbol id="icon-arrow" viewBox="0 0 14 6">
      <path d="M13.7293 0.810272C14.0557 2.41543 14.0872 4.06658 13.8223 5.68302L0.5 3.5L13.7293 0.810272Z" fill="#2E8097"/>
    </symbol>
  </defs>
</svg>
